<?xml version="1.0" encoding="utf-8"?>
<!-- Generator: Adobe Illustrator 23.0.6, SVG Export Plug-In . SVG Version: 6.00 Build 0)  -->
<svg version="1.1" xmlns="http://www.w3.org/2000/svg" xmlns:xlink="http://www.w3.org/1999/xlink" x="0px" y="0px"
	 viewBox="0 0 666.76 226.37" style="enable-background:new 0 0 666.76 226.37;" xml:space="preserve">
<style type="text/css">
	.Grün_x0020_bogenförmig{fill:url(#SVGID_1_);stroke:#FFFFFF;stroke-width:0.25;stroke-miterlimit:1;}
	.st0{fill:#89BB40;}
	.st1{fill:#23B3E4;}
	.st2{display:none;}
	.st3{display:inline;}
	.st4{fill:#FFFFFF;}
	.st5{fill:none;}
	.st6{fill:#1B202C;}
	.st7{fill-rule:evenodd;clip-rule:evenodd;fill:#1B202C;}
	.st8{fill-rule:evenodd;clip-rule:evenodd;fill:#FFFFFF;}
</style>
<linearGradient id="SVGID_1_" gradientUnits="userSpaceOnUse" x1="0" y1="555.2007" x2="0.7071" y2="554.4936">
	<stop  offset="0" style="stop-color:#259E2E"/>
	<stop  offset="0.9831" style="stop-color:#1C381D"/>
</linearGradient>
<g id="q_color">
	<g>
		<rect x="93.88" y="1.06" class="st0" width="31.18" height="223.94"/>
		<path class="st1" d="M79.37,1.06c0,0-48.19,0-65.2,0C6.24,1.06,0,5.41,0,15.24c0,33.35,0,110.55,0,110.55
			c0,10,6.33,14.17,14.17,14.17c15.96,0,65.2,0,65.2,0v-31.18c0,0-27.64,0-34.02,0c-7.94,0-14.17-4.35-14.17-14.17
			c0-11.51,0-34.4,0-48.19c0-9.83,6.24-14.17,14.17-14.17c6.72,0,34.02,0,34.02,0"/>
	</g>
</g>
<g id="q_white" class="st2">
	<g class="st3">
		<rect x="93.88" y="1.03" class="st4" width="31.18" height="223.94"/>
		<path class="st4" d="M79.37,1.03c0,0-48.19,0-65.2,0C6.24,1.03,0,5.37,0,15.2c0,33.35,0,110.55,0,110.55
			c0,10,6.33,14.17,14.17,14.17c15.96,0,65.2,0,65.2,0v-31.18c0,0-27.64,0-34.02,0c-7.94,0-14.17-4.35-14.17-14.17
			c0-11.51,0-34.4,0-48.19c0-9.83,6.24-14.17,14.17-14.17c6.72,0,34.02,0,34.02,0"/>
	</g>
</g>
<g id="Font_black" class="st2">
	<g class="st3">
		<rect x="129.42" y="1.81" class="st5" width="458.24" height="138.15"/>
		<path class="st6" d="M154.03,129.82c-7.77-6.53-11.65-16.99-11.65-31.38V77.84c0-14.26,3.88-24.68,11.65-31.28
			c7.76-6.6,18.17-9.9,31.21-9.9c12.75,0,22.97,3.3,30.66,9.9c7.69,6.6,11.54,17.03,11.54,31.28v20.59
			c0,14.26-3.85,24.69-11.54,31.28c-7.69,6.6-17.91,9.9-30.66,9.9C172.2,139.62,161.8,136.35,154.03,129.82z M205.13,120.91
			c4.91-4.42,7.36-12.18,7.36-23.27V78.63c0-10.96-2.46-18.64-7.36-23.07c-4.91-4.42-11.54-6.63-19.89-6.63
			c-8.65,0-15.46,2.21-20.44,6.63c-4.98,4.42-7.47,12.11-7.47,23.07v19.01c0,11.09,2.49,18.84,7.47,23.27
			c4.98,4.42,11.79,6.63,20.44,6.63C193.59,127.54,200.22,125.33,205.13,120.91z"/>
		<path class="st6" d="M251.39,38.04h14.73v12.28c3.22-4.49,7.43-7.85,12.64-10.1c5.2-2.24,11.02-3.37,17.47-3.37
			c11.87,0,20.99,3.14,27.36,9.41c6.37,6.27,9.56,15.02,9.56,26.23v65.93h-14.95V74.48c0-8.32-2.27-14.65-6.81-19.01
			c-4.54-4.36-10.84-6.53-18.9-6.53c-7.91,0-14.25,2.21-19.01,6.63c-4.76,4.42-7.14,10.73-7.14,18.91v63.95h-14.95V38.04z"/>
		<path class="st6" d="M384.14,48.74v64.15c0,9.11,4.76,13.66,14.29,13.66h8.79v11.88h-11.21c-8.5,0-15.13-2.21-19.89-6.63
			c-4.76-4.42-7.14-10.52-7.14-18.32V48.74h-17.36V38.04h17.36V15.08l15.17-6.34v29.3h25.05v10.69H384.14z"/>
		<path class="st6" d="M429.85,38.04h14.73v13.46c3.08-5.02,7.14-8.74,12.2-11.19c5.06-2.44,10.73-3.66,17.03-3.66
			c2.78,0,5.49,0.2,8.13,0.59v13.46c-3.52-1.06-7.33-1.58-11.43-1.58c-7.62,0-13.81,2.38-18.57,7.13
			c-4.76,4.75-7.14,10.96-7.14,18.61v63.56h-14.95V38.04z"/>
	</g>
	<g class="st3">
		<rect x="610.71" y="1.81" class="st5" width="78.73" height="138.15"/>
		<path class="st6" d="M634.23,131.7c-4.69-4.49-7.03-11.02-7.03-19.6V1.81h14.95V111.3c0,5.15,1.1,8.91,3.3,11.29
			c2.2,2.38,5.79,3.56,10.77,3.56h9.01v12.28h-10.55C645.73,138.43,638.92,136.19,634.23,131.7z"/>
	</g>
</g>
<g id="Font_white">
	<g>
		<rect x="129.42" y="1.81" class="st5" width="458.24" height="138.15"/>
		<path class="st4" d="M154.03,129.82c-7.77-6.53-11.65-16.99-11.65-31.38V77.84c0-14.26,3.88-24.68,11.65-31.28
			c7.76-6.6,18.17-9.9,31.21-9.9c12.75,0,22.97,3.3,30.66,9.9c7.69,6.6,11.54,17.03,11.54,31.28v20.59
			c0,14.26-3.85,24.69-11.54,31.28c-7.69,6.6-17.91,9.9-30.66,9.9C172.2,139.62,161.8,136.35,154.03,129.82z M205.13,120.91
			c4.91-4.42,7.36-12.18,7.36-23.27V78.64c0-10.96-2.46-18.64-7.36-23.07c-4.91-4.42-11.54-6.63-19.89-6.63
			c-8.65,0-15.46,2.21-20.44,6.63c-4.98,4.42-7.47,12.11-7.47,23.07v19.01c0,11.09,2.49,18.84,7.47,23.27
			c4.98,4.42,11.79,6.63,20.44,6.63C193.59,127.54,200.22,125.33,205.13,120.91z"/>
		<path class="st4" d="M251.39,38.04h14.73v12.28c3.22-4.49,7.43-7.85,12.64-10.1c5.2-2.24,11.02-3.37,17.47-3.37
			c11.87,0,20.99,3.14,27.36,9.41c6.37,6.27,9.56,15.02,9.56,26.23v65.93h-14.95V74.48c0-8.32-2.27-14.65-6.81-19.01
			c-4.54-4.36-10.84-6.53-18.9-6.53c-7.91,0-14.25,2.21-19.01,6.63c-4.76,4.42-7.14,10.73-7.14,18.91v63.95h-14.95V38.04z"/>
		<path class="st4" d="M384.14,48.74v64.15c0,9.11,4.76,13.66,14.29,13.66h8.79v11.88h-11.21c-8.5,0-15.13-2.21-19.89-6.63
			c-4.76-4.42-7.14-10.52-7.14-18.32V48.74h-17.36V38.04h17.36V15.08l15.17-6.34v29.3h25.05v10.69H384.14z"/>
		<path class="st4" d="M429.85,38.04h14.73v13.46c3.08-5.02,7.14-8.74,12.2-11.19c5.06-2.44,10.73-3.66,17.03-3.66
			c2.78,0,5.49,0.2,8.13,0.59v13.46c-3.52-1.06-7.33-1.58-11.43-1.58c-7.62,0-13.81,2.38-18.57,7.13
			c-4.76,4.75-7.14,10.96-7.14,18.61v63.56h-14.95V38.04z"/>
	</g>
	<g>
		<rect x="610.71" y="1.81" class="st5" width="78.73" height="138.15"/>
		<path class="st4" d="M634.23,131.7c-4.69-4.49-7.03-11.02-7.03-19.6V1.81h14.95v109.49c0,5.15,1.1,8.91,3.3,11.29
			s5.79,3.56,10.77,3.56h9.01v12.28h-10.55C645.73,138.43,638.92,136.19,634.23,131.7z"/>
	</g>
</g>
<g id="Compass_black" class="st2">
	<g class="st3">
		<path class="st7" d="M553.73,135.09v-7.01c0-1.31-1.05-2.37-2.34-2.37c-1.29,0-2.34,1.07-2.34,2.37v7.01
			c-23.96-1.21-43.14-20.69-44.33-45.03h6.9c1.29,0,2.33-1.07,2.33-2.38c0-1.31-1.05-2.38-2.33-2.38h-6.9
			c1.19-24.34,20.37-43.83,44.33-45.03v7.01c0,1.31,1.05,2.37,2.34,2.37c1.29,0,2.34-1.06,2.34-2.37v-7.01
			c23.96,1.21,43.14,20.69,44.33,45.03h-6.9c-1.29,0-2.33,1.07-2.33,2.38c0,1.31,1.05,2.38,2.33,2.38h6.9
			C596.87,114.4,577.69,133.88,553.73,135.09 M551.39,35.39c-28.42,0-51.46,23.41-51.46,52.28s23.04,52.28,51.46,52.28
			c28.42,0,51.46-23.41,51.46-52.28S579.81,35.39,551.39,35.39 M571.24,67.51L558.01,94.4l-26.46,13.45l13.23-26.89L571.24,67.51
			L571.24,67.51z M521.62,117.93l39.7-20.16l19.85-40.34l-39.7,20.17L521.62,117.93L521.62,117.93z M554.7,91.04
			c1.82-1.85,1.82-4.87,0-6.72c-1.82-1.86-4.79-1.86-6.61,0c-1.82,1.85-1.82,4.87,0,6.72C549.91,92.9,552.87,92.9,554.7,91.04"/>
	</g>
</g>
<g id="Compass_white">
	<g>
		<path class="st8" d="M553.73,135.09v-7.01c0-1.31-1.05-2.37-2.34-2.37c-1.29,0-2.34,1.07-2.34,2.37v7.01
			c-23.96-1.21-43.14-20.69-44.33-45.03h6.9c1.29,0,2.33-1.07,2.33-2.38c0-1.31-1.05-2.38-2.33-2.38h-6.9
			c1.19-24.34,20.37-43.83,44.33-45.03v7.01c0,1.31,1.05,2.37,2.34,2.37c1.29,0,2.34-1.06,2.34-2.37v-7.01
			c23.96,1.21,43.14,20.69,44.33,45.03h-6.9c-1.29,0-2.33,1.07-2.33,2.38c0,1.31,1.05,2.38,2.33,2.38h6.9
			C596.87,114.4,577.69,133.88,553.73,135.09 M551.39,35.39c-28.42,0-51.46,23.41-51.46,52.28s23.04,52.28,51.46,52.28
			c28.42,0,51.46-23.41,51.46-52.28S579.81,35.39,551.39,35.39 M571.24,67.51L558.01,94.4l-26.46,13.45l13.23-26.89L571.24,67.51
			L571.24,67.51z M521.62,117.93l39.7-20.16l19.85-40.34l-39.7,20.17L521.62,117.93L521.62,117.93z M554.7,91.04
			c1.82-1.85,1.82-4.87,0-6.72c-1.82-1.86-4.79-1.86-6.61,0c-1.82,1.85-1.82,4.87,0,6.72C549.91,92.9,552.87,92.9,554.7,91.04"/>
	</g>
	<g>
	</g>
	<g>
	</g>
	<g>
	</g>
	<g>
	</g>
	<g>
	</g>
	<g>
	</g>
</g>
</svg>
